<svg xmlns="http://www.w3.org/2000/svg" width="18" height="18.012" viewBox="0 0 18 18.012">
  <path id="iconfinder_15.Pencil_290135_1_" data-name="iconfinder_15.Pencil_290135(1)" d="M18.243,6.246a.374.374,0,0,1-.072.108L7.239,17.287a.372.372,0,0,1-.186.17l-5.427,1.52a.267.267,0,0,1-.037.01l-.018.005-.009,0a.416.416,0,0,1-.112.018A.363.363,0,0,1,1.339,19c-.008,0-.016,0-.024,0l-.008-.005a.368.368,0,0,1-.094-.055.347.347,0,0,1-.044-.034.346.346,0,0,1-.034-.044.373.373,0,0,1-.055-.094.094.094,0,0,1-.005-.008c0-.008,0-.016,0-.024a.386.386,0,0,1-.016-.11.432.432,0,0,1,.018-.112s0-.006,0-.009l.005-.019c0-.012.005-.025.01-.036l1.52-5.427a.374.374,0,0,1,.17-.186L13.545,2.062c.016-.018.034-.033.05-.05l.117-.117c.006-.006.013-.008.02-.013a3.14,3.14,0,0,1,4.511,4.365Zm-1.481.434L15.345,5.263,6.084,14.525s.005,0,.007.007l.93,1.891ZM2.036,18.031l1.091-.305-.786-.785Zm.542-1.937,1.394,1.394,2.4-.672s-1.013-2.1-1.015-2.105L3.25,13.7Zm2.957-2.118s0,.005.007.007L14.8,4.722,13.386,3.3,3.644,13.047ZM15.89,1.784a2.379,2.379,0,0,0-1.759.781l0,0-.2.2L17.3,6.14l.206-.207,0,0A2.386,2.386,0,0,0,15.89,1.784Z" transform="translate(-1.055 -1)" fill-rule="evenodd"/>
</svg>
