<svg xmlns="http://www.w3.org/2000/svg" xmlns:xlink="http://www.w3.org/1999/xlink" width="102" height="105" viewBox="0 0 102 105">
  <defs>
    <filter id="Ellipse_11" x="0" y="0" width="102" height="105" filterUnits="userSpaceOnUse">
      <feOffset dy="3" input="SourceAlpha"/>
      <feGaussianBlur result="blur"/>
      <feFlood flood-opacity="0.161"/>
      <feComposite operator="in" in2="blur"/>
      <feComposite in="SourceGraphic"/>
    </filter>
    <linearGradient id="linear-gradient" x1="-0.234" x2="0.6" y2="1.507" gradientUnits="objectBoundingBox">
      <stop offset="0" stop-color="#03f"/>
      <stop offset="1" stop-color="#cd118c"/>
    </linearGradient>
  </defs>
  <g id="Group_13" data-name="Group 13" transform="translate(-1543 -389)">
    <g transform="matrix(1, 0, 0, 1, 1543, 389)" filter="url(#Ellipse_11)">
      <circle id="Ellipse_11-2" data-name="Ellipse 11" cx="51" cy="51" r="51" fill="#fff"/>
    </g>
    <g id="iconfinder_thefreeforty_shop_1243706" transform="translate(1567 418)">
      <g id="Group_3" data-name="Group 3" transform="translate(0 0)">
        <path id="Path_1106" data-name="Path 1106" d="M26.222,26.466H14.077A4.874,4.874,0,0,0,9.182,31.36V34.8A4.874,4.874,0,0,0,14.077,39.7H26.222A4.874,4.874,0,0,0,31.117,34.8V31.36A4.874,4.874,0,0,0,26.222,26.466ZM28.4,34.8a2.094,2.094,0,0,1-2.175,2.175H14.077A2.094,2.094,0,0,1,11.9,34.8V31.36a2.094,2.094,0,0,1,2.175-2.175H26.222A2.094,2.094,0,0,1,28.4,31.36ZM53.414,17.4,50.876,3.988A1.324,1.324,0,0,0,49.607,2.9H4.288A1.212,1.212,0,0,0,3.019,3.988L.844,15.045A7.274,7.274,0,0,0,.3,17.765,7.4,7.4,0,0,0,4.107,24.29V42.962A4.023,4.023,0,0,0,8.095,46.95H33.473a1.43,1.43,0,0,0,1.45-1.45V28.822h7.251V45.5a1.43,1.43,0,0,0,1.45,1.45h2.538a4.023,4.023,0,0,0,3.988-3.988V23.928a7.573,7.573,0,0,0,3.444-5.8A1.09,1.09,0,0,0,53.414,17.4ZM47.25,42.78a1.239,1.239,0,0,1-1.269,1.269H44.712v-16.5a1.43,1.43,0,0,0-1.45-1.45h-9.97a1.43,1.43,0,0,0-1.45,1.45v16.5H8.095A1.239,1.239,0,0,1,6.826,42.78V25.2c.363,0,.725.181,1.088.181a7.9,7.9,0,0,0,6.345-3.263,7.8,7.8,0,0,0,12.689,0,7.8,7.8,0,0,0,12.689,0,7.647,7.647,0,0,0,6.345,3.263,3.534,3.534,0,0,0,1.45-.181V42.78Zm3.444-25.2a4.894,4.894,0,0,1-9.789,0,1.43,1.43,0,0,0-1.45-1.45,1.334,1.334,0,0,0-1.45,1.45,4.894,4.894,0,1,1-9.789,0,1.43,1.43,0,0,0-1.45-1.45,1.334,1.334,0,0,0-1.45,1.45,4.894,4.894,0,1,1-9.789,0,1.43,1.43,0,0,0-1.45-1.45c-.906,0-1.088.725-1.088,1.45a4.894,4.894,0,1,1-9.789,0,6.441,6.441,0,0,1,.363-1.813v-.181l1.994-9.97H48.7L50.876,17.4Z" transform="translate(-0.3 -2.9)" fill="url(#linear-gradient)"/>
      </g>
    </g>
  </g>
</svg>
