<svg xmlns="http://www.w3.org/2000/svg" xmlns:xlink="http://www.w3.org/1999/xlink" width="102" height="105" viewBox="0 0 102 105">
  <defs>
    <filter id="Ellipse_13" x="0" y="0" width="102" height="105" filterUnits="userSpaceOnUse">
      <feOffset dy="3" input="SourceAlpha"/>
      <feGaussianBlur result="blur"/>
      <feFlood flood-opacity="0.161"/>
      <feComposite operator="in" in2="blur"/>
      <feComposite in="SourceGraphic"/>
    </filter>
    <linearGradient id="linear-gradient" x1="-0.122" y1="0.025" x2="0.654" y2="1.277" gradientUnits="objectBoundingBox">
      <stop offset="0" stop-color="#08f"/>
      <stop offset="1" stop-color="#cd118c"/>
    </linearGradient>
  </defs>
  <g id="Group_14" data-name="Group 14" transform="translate(-495 -755)">
    <g transform="matrix(1, 0, 0, 1, 495, 755)" filter="url(#Ellipse_13)">
      <circle id="Ellipse_13-2" data-name="Ellipse 13" cx="51" cy="51" r="51" fill="#fff"/>
    </g>
    <g id="Group_5" data-name="Group 5" transform="translate(-585 41)">
      <g id="iconfinder_Internet_Line-20_1587498" transform="translate(1108 743)">
        <g id="_x32_0-Search" transform="translate(0 0)">
          <g id="Group_4" data-name="Group 4">
            <path id="Path_1108" data-name="Path 1108" d="M63.681,81.859v.3a27.727,27.727,0,0,1-3.246-5.275h.522a.817.817,0,0,0,.809-.942q-.078-.489-.116-.991a.818.818,0,0,0-.816-.756H59.341a27.852,27.852,0,0,1-1.506-7.83h5.846a.251.251,0,0,0,.451.151,12.494,12.494,0,0,1,2.389-2.389.251.251,0,0,0-.151-.451h0V55.85h4.34A27.744,27.744,0,0,1,72,61.3a.464.464,0,0,0,.518.4,12.294,12.294,0,0,1,1.691-.086.468.468,0,0,0,.474-.527,30.44,30.44,0,0,0-1.143-5.236h8.5a19.2,19.2,0,0,1,2.271,7.83h-2.5a.312.312,0,0,0-.193.558,12.487,12.487,0,0,1,1.81,1.734,1.12,1.12,0,0,0,.851.4h.037q-.011.153-.024.305a1.105,1.105,0,0,0,.166.691,12.333,12.333,0,0,1,1.36,2.917.312.312,0,0,0,.6-.014A22.028,22.028,0,0,0,65.026,43h0A22.025,22.025,0,1,0,70.2,86.434a.33.33,0,0,0,.022-.637,12.43,12.43,0,0,1-5.956-4.143A.329.329,0,0,0,63.681,81.859Zm16.6-28.7H72.558a30.368,30.368,0,0,0-4.286-7.2A19.353,19.353,0,0,1,80.284,53.162ZM66.369,47.887a27.727,27.727,0,0,1,3.246,5.275H66.369ZM63.681,63.681H57.835a27.853,27.853,0,0,1,1.506-7.83h4.34Zm0-10.519H60.435a27.73,27.73,0,0,1,3.246-5.275Zm-1.9-7.2a30.369,30.369,0,0,0-4.286,7.2H49.766A19.352,19.352,0,0,1,61.778,45.963ZM48.007,55.85h8.5a30.591,30.591,0,0,0-1.364,7.83H45.736A19.2,19.2,0,0,1,48.007,55.85Zm0,18.349a19.2,19.2,0,0,1-2.271-7.83h9.409a30.587,30.587,0,0,0,1.364,7.83Zm1.758,2.688h7.726a30.365,30.365,0,0,0,4.286,7.2A19.353,19.353,0,0,1,49.766,76.888Z" transform="translate(-43 -43)" fill="url(#linear-gradient)"/>
          </g>
        </g>
      </g>
      <g id="Fill" transform="translate(1127.802 762.595)">
        <path id="Path_1109" data-name="Path 1109" d="M13.426,2A11.426,11.426,0,1,0,24.852,13.426,11.426,11.426,0,0,0,13.426,2Zm0,21.22a9.794,9.794,0,1,1,9.794-9.794,9.794,9.794,0,0,1-9.794,9.794Z" transform="translate(-2 -2)" fill="url(#linear-gradient)"/>
        <path id="Path_1110" data-name="Path 1110" d="M16.713,7H13.448A2.448,2.448,0,0,0,11,9.448v1.632h1.632V9.448a.816.816,0,0,1,.816-.816h3.265a.816.816,0,0,1,.816.816V10.4a.816.816,0,0,1-.237.579l-2.31,2.31a2.448,2.448,0,0,0-.718,1.73V17.61H15.9V15.023a.816.816,0,0,1,.237-.579l2.31-2.31a2.448,2.448,0,0,0,.718-1.73V9.448A2.448,2.448,0,0,0,16.713,7Z" transform="translate(-3.655 -2.919)" fill="url(#linear-gradient)"/>
        <ellipse id="Ellipse_15" data-name="Ellipse 15" cx="2" cy="1.5" rx="2" ry="1.5" transform="translate(9.198 16.405)" fill="url(#linear-gradient)"/>
      </g>
    </g>
  </g>
</svg>
