<svg xmlns="http://www.w3.org/2000/svg" width="15.893" height="20.82" viewBox="0 0 15.893 20.82">
  <g id="iconfinder_basics-23_296811" transform="translate(-27.3 -21.1)">
    <path id="Path_1237" data-name="Path 1237" d="M35.246,21.1A7.945,7.945,0,0,0,27.3,29.046c0,4.372,7.946,12.874,7.946,12.874s7.946-8.467,7.946-12.874A7.923,7.923,0,0,0,35.246,21.1Zm0,19.779c-.729-.8-2.082-2.36-3.435-4.2-2.5-3.366-3.817-6-3.817-7.669a7.252,7.252,0,1,1,14.5.035c0,1.631-1.319,4.3-3.817,7.669C37.328,38.519,35.975,40.081,35.246,40.879Z" fill="#134563"/>
    <path id="Path_1238" data-name="Path 1238" d="M43.148,32.1A3.748,3.748,0,1,0,46.9,35.848,3.732,3.732,0,0,0,43.148,32.1ZM45.3,38.034a3.016,3.016,0,1,1,.9-2.151A3.045,3.045,0,0,1,45.3,38.034Z" transform="translate(-7.901 -7.183)" fill="#134563"/>
  </g>
</svg>
