<svg xmlns="http://www.w3.org/2000/svg" width="13.043" height="18.35" viewBox="0 0 13.043 18.35">
  <g id="iconfinder_Tilda_Icons_1ed_phone_3586359" transform="translate(0 0)">
    <path id="Path_1234" data-name="Path 1234" d="M29.258,8.6H20.384A2.082,2.082,0,0,0,18.3,10.663V24.887a2.068,2.068,0,0,0,2.084,2.063h8.874a2.082,2.082,0,0,0,2.084-2.063V10.663A2.068,2.068,0,0,0,29.258,8.6ZM30.7,24.887a1.422,1.422,0,0,1-1.44,1.418H20.384a1.435,1.435,0,0,1-1.44-1.418V10.663a1.422,1.422,0,0,1,1.44-1.418h8.874a1.435,1.435,0,0,1,1.44,1.418Z" transform="translate(-18.3 -8.6)" fill="#134563"/>
    <path id="Path_1235" data-name="Path 1235" d="M40.33,18.1H35.022a.322.322,0,1,0,0,.645H40.33a.322.322,0,0,0,0-.645Z" transform="translate(-31.176 -16.059)" fill="#134563"/>
    <path id="Path_1236" data-name="Path 1236" d="M44.674,75.4A1.077,1.077,0,0,0,43.6,76.474a1.008,1.008,0,0,0,.322.752,1.074,1.074,0,0,0,.752.3h0a1.077,1.077,0,0,0,1.074-1.074A1.059,1.059,0,0,0,44.674,75.4Zm.021,1.5h0a.441.441,0,0,1-.43-.43.431.431,0,0,1,.43-.43h0a.43.43,0,1,1,0,.859Z" transform="translate(-38.164 -61.047)" fill="#134563"/>
  </g>
</svg>
