<svg xmlns="http://www.w3.org/2000/svg" xmlns:xlink="http://www.w3.org/1999/xlink" width="102" height="105" viewBox="0 0 102 105">
  <defs>
    <filter id="Ellipse_14" x="0" y="0" width="102" height="105" filterUnits="userSpaceOnUse">
      <feOffset dy="3" input="SourceAlpha"/>
      <feGaussianBlur result="blur"/>
      <feFlood flood-opacity="0.161"/>
      <feComposite operator="in" in2="blur"/>
      <feComposite in="SourceGraphic"/>
    </filter>
    <linearGradient id="linear-gradient" x1="-0.591" y1="-0.289" x2="0.5" y2="1" gradientUnits="objectBoundingBox">
      <stop offset="0" stop-color="#515dd1"/>
      <stop offset="1" stop-color="#a928a1"/>
    </linearGradient>
  </defs>
  <g id="Group_15" data-name="Group 15" transform="translate(-840 -755)">
    <g transform="matrix(1, 0, 0, 1, 840, 755)" filter="url(#Ellipse_14)">
      <circle id="Ellipse_14-2" data-name="Ellipse 14" cx="51" cy="51" r="51" fill="#fff"/>
    </g>
    <g id="Layer_2" data-name="Layer 2" transform="translate(869 784)">
      <g id="Layer_4" data-name="Layer 4">
        <path id="Path_1230" data-name="Path 1230" d="M26.636,19.142h-4.13A5.506,5.506,0,0,1,17,13.636V9.506A5.506,5.506,0,0,1,22.506,4h4.13a5.506,5.506,0,0,1,5.506,5.506v4.13A5.506,5.506,0,0,1,26.636,19.142ZM22.506,6.753a2.753,2.753,0,0,0-2.753,2.753v4.13a2.753,2.753,0,0,0,2.753,2.753h4.13a2.753,2.753,0,0,0,2.753-2.753V9.506a2.753,2.753,0,0,0-2.753-2.753Z" transform="translate(6.401 1.506)" fill="url(#linear-gradient)"/>
        <path id="Path_1231" data-name="Path 1231" d="M13.636,19.142H9.506A5.506,5.506,0,0,1,4,13.636V9.506A5.506,5.506,0,0,1,9.506,4h4.13a5.506,5.506,0,0,1,5.506,5.506v4.13A5.506,5.506,0,0,1,13.636,19.142ZM9.506,6.753A2.753,2.753,0,0,0,6.753,9.506v4.13a2.753,2.753,0,0,0,2.753,2.753h4.13a2.753,2.753,0,0,0,2.753-2.753V9.506a2.753,2.753,0,0,0-2.753-2.753Z" transform="translate(1.506 1.506)" fill="url(#linear-gradient)"/>
        <path id="Path_1232" data-name="Path 1232" d="M13.636,32.142H9.506A5.506,5.506,0,0,1,4,26.636v-4.13A5.506,5.506,0,0,1,9.506,17h4.13a5.506,5.506,0,0,1,5.506,5.506v4.13A5.506,5.506,0,0,1,13.636,32.142ZM9.506,19.753a2.753,2.753,0,0,0-2.753,2.753v4.13a2.753,2.753,0,0,0,2.753,2.753h4.13a2.753,2.753,0,0,0,2.753-2.753v-4.13a2.753,2.753,0,0,0-2.753-2.753Z" transform="translate(1.506 6.401)" fill="url(#linear-gradient)"/>
        <path id="Path_1233" data-name="Path 1233" d="M26.636,32.142h-4.13A5.506,5.506,0,0,1,17,26.636v-4.13A5.506,5.506,0,0,1,22.506,17h4.13a5.506,5.506,0,0,1,5.506,5.506v4.13A5.506,5.506,0,0,1,26.636,32.142Zm-4.13-12.389a2.753,2.753,0,0,0-2.753,2.753v4.13a2.753,2.753,0,0,0,2.753,2.753h4.13a2.753,2.753,0,0,0,2.753-2.753v-4.13a2.753,2.753,0,0,0-2.753-2.753Z" transform="translate(6.401 6.401)" fill="url(#linear-gradient)"/>
        <rect id="Rectangle_1636" data-name="Rectangle 1636" width="44" height="44" fill="none"/>
      </g>
    </g>
  </g>
</svg>
