<svg xmlns="http://www.w3.org/2000/svg" width="16.029" height="16.028" viewBox="0 0 16.029 16.028">
  <g id="iconfinder_clock_1814097" transform="translate(0 0)">
    <g id="Icon-Clock" transform="translate(0 0)">
      <path id="Fill-131" d="M-360.986-402.872A8.035,8.035,0,0,1-369-410.886a8.035,8.035,0,0,1,8.014-8.014,8.036,8.036,0,0,1,8.014,8.014,7.991,7.991,0,0,1-8.014,8.014Zm0-15.189a7.147,7.147,0,0,0-7.139,7.139,7.169,7.169,0,0,0,7.139,7.139,7.169,7.169,0,0,0,7.139-7.139,7.147,7.147,0,0,0-7.139-7.139Z" transform="translate(369 418.9)" fill="#134563"/>
      <path id="Fill-132" d="M-344.425-399.9l-2.975-2.975V-408.3h.945v5.04l2.695,2.695-.665.665" transform="translate(354.959 412.01)" fill="#134563"/>
    </g>
  </g>
</svg>
