<svg xmlns="http://www.w3.org/2000/svg" width="25" height="25" viewBox="0 0 25 25">
  <path id="iconfinder_00-ELASTOFONT-STORE-READY_user-circle_2703062" d="M26,13.5A12.5,12.5,0,1,0,4.827,22.482a.763.763,0,0,0,.2.179,12.427,12.427,0,0,0,16.953,0,.763.763,0,0,0,.2-.179A12.456,12.456,0,0,0,26,13.5ZM13.5,2.563a10.922,10.922,0,0,1,8.573,17.709,7.45,7.45,0,0,0-5.238-4.683,5.7,5.7,0,1,0-6.67,0,7.45,7.45,0,0,0-5.238,4.683A10.922,10.922,0,0,1,13.5,2.563ZM9.361,10.98A4.139,4.139,0,1,1,13.5,15.111,4.14,4.14,0,0,1,9.361,10.98ZM6.24,21.658c.235-2.865,3.273-4.984,7.26-4.984s7.025,2.12,7.26,4.984a10.871,10.871,0,0,1-14.519,0Z" transform="translate(-1 -1)" fill="#1a7ff2"/>
</svg>
