<svg xmlns="http://www.w3.org/2000/svg" width="33.227" height="26.176" viewBox="0 0 33.227 26.176">
  <g id="iconfinder_maker-mkr-cryptocurrency-token-coin-pouch-buy_4511317" transform="translate(-8 -15)">
    <path id="Path_1226" data-name="Path 1226" d="M38.213,25.066v-5.54A3.526,3.526,0,0,0,34.687,16H16.051A7.051,7.051,0,0,0,9,23.051V33.125a7.051,7.051,0,0,0,7.051,7.051H34.687a3.526,3.526,0,0,0,3.526-3.526V34.132" transform="translate(0)" fill="none" stroke="#1a7ff2" stroke-linecap="round" stroke-miterlimit="10" stroke-width="2"/>
    <path id="Path_1227" data-name="Path 1227" d="M58.022,34h3.022a2.015,2.015,0,0,1,2.015,2.015v2.015a2.015,2.015,0,0,1-2.015,2.015H58.022A3.022,3.022,0,0,1,55,37.022h0A3.022,3.022,0,0,1,58.022,34Z" transform="translate(-22.831 -8.934)" fill="none" stroke="#1a7ff2" stroke-linecap="round" stroke-miterlimit="10" stroke-width="2"/>
    <circle id="Ellipse_16" data-name="Ellipse 16" cx="1" cy="1" r="1" transform="translate(34.614 27.088)" fill="#1a7ff2"/>
    <path id="Path_1228" data-name="Path 1228" d="M23.348,40.054a.888.888,0,0,1-.712-.891V36.109a.652.652,0,0,0-.245-.511l-2.914-2.363a.1.1,0,0,0-.164.078v5.851a.888.888,0,0,1-.712.891.856.856,0,0,1-1-.845V32.431a1.425,1.425,0,0,1,.67-1.242,1.351,1.351,0,0,1,1.539.11l3.656,2.965a2.352,2.352,0,0,1,.884,1.845v3.1a.856.856,0,0,1-1,.845Z" transform="translate(-4.268 -7.445)" fill="#1a7ff2"/>
    <path id="Path_1229" data-name="Path 1229" d="M34,40.054a.888.888,0,0,0,.712-.891V36.109a.652.652,0,0,1,.245-.511l2.914-2.363a.1.1,0,0,1,.164.078v5.851a.888.888,0,0,0,.712.891.856.856,0,0,0,1-.845V32.431a1.425,1.425,0,0,0-.67-1.242,1.351,1.351,0,0,0-1.539.11l-3.656,2.965A2.352,2.352,0,0,0,33,36.109v3.1a.856.856,0,0,0,1,.845Z" transform="translate(-11.912 -7.445)" fill="#1a7ff2"/>
  </g>
</svg>
