<?xml version="1.0" encoding="utf-8"?>
<!-- Generator: Adobe Illustrator 24.1.2, SVG Export Plug-In . SVG Version: 6.00 Build 0)  -->
<svg version="1.1" id="Layer_1" xmlns="http://www.w3.org/2000/svg" xmlns:xlink="http://www.w3.org/1999/xlink" x="0px" y="0px"
	 viewBox="0 0 165 35" style="enable-background:new 0 0 165 35;" xml:space="preserve">
<style type="text/css">
	.st0{fill:#004DDA;}
	.st1{font-family:'NotoSans-Bold';}
	.st2{font-size:34.8915px;}
</style>
<g>
	<circle class="st0" cx="26.7" cy="17" r="5.3"/>
	<path class="st0" d="M41.8,11.7h-3.8c0.8,1.6,1.2,3.4,1.2,5.3c0,6.9-5.6,12.4-12.4,12.4H3.6L0,33h26.7c8.8,0,16-7.2,16-16
		C42.7,15.1,42.3,13.3,41.8,11.7z"/>
	<path class="st0" d="M35.9,11.7h-4.5c1.5,1.3,2.4,3.2,2.4,5.3c0,3.9-3.2,7.1-7.1,7.1H8.9l-3.6,3.6h21.3c5.9,0,10.7-4.8,10.7-10.7
		C37.3,15.1,36.8,13.2,35.9,11.7z"/>
	<path class="st0" d="M11.6,22.3h3.8c-0.8-1.6-1.2-3.4-1.2-5.3c0-6.9,5.6-12.4,12.4-12.4h23.1L53.3,1H26.7c-8.8,0-16,7.2-16,16
		C10.7,18.9,11,20.7,11.6,22.3z"/>
	<path class="st0" d="M17.4,22.3H22c-1.5-1.3-2.4-3.2-2.4-5.3c0-3.9,3.2-7.1,7.1-7.1h17.8L48,6.3H26.7C20.8,6.3,16,11.1,16,17
		C16,18.9,16.5,20.8,17.4,22.3z"/>
</g>
<text transform="matrix(1 0 0 1 56.999 30.1592)" class="st1 st2">LOGO</text>
</svg>
